<svg xmlns="http://www.w3.org/2000/svg" width="128" height="16" viewBox="0 0 128 16" shape-rendering="crispEdges"><rect x="6" y="1" width="1" height="1" fill="#1B1206"/><rect x="7" y="1" width="1" height="1" fill="#1B1206"/><rect x="8" y="1" width="1" height="1" fill="#1B1206"/><rect x="9" y="1" width="1" height="1" fill="#1B1206"/><rect x="4" y="2" width="1" height="1" fill="#1B1206"/><rect x="5" y="2" width="1" height="1" fill="#1B1206"/><rect x="6" y="2" width="1" height="1" fill="#1B1206"/><rect x="7" y="2" width="1" height="1" fill="#1B1206"/><rect x="8" y="2" width="1" height="1" fill="#1B1206"/><rect x="9" y="2" width="1" height="1" fill="#1B1206"/><rect x="10" y="2" width="1" height="1" fill="#1B1206"/><rect x="11" y="2" width="1" height="1" fill="#1B1206"/><rect x="3" y="3" width="1" height="1" fill="#1B1206"/><rect x="4" y="3" width="1" height="1" fill="#1B1206"/><rect x="5" y="3" width="1" height="1" fill="#1B1206"/><rect x="6" y="3" width="1" height="1" fill="#FFE55C"/><rect x="7" y="3" width="1" height="1" fill="#FFE55C"/><rect x="8" y="3" width="1" height="1" fill="#FFE55C"/><rect x="9" y="3" width="1" height="1" fill="#FFE55C"/><rect x="10" y="3" width="1" height="1" fill="#1B1206"/><rect x="11" y="3" width="1" height="1" fill="#1B1206"/><rect x="12" y="3" width="1" height="1" fill="#1B1206"/><rect x="2" y="4" width="1" height="1" fill="#1B1206"/><rect x="3" y="4" width="1" height="1" fill="#1B1206"/><rect x="4" y="4" width="1" height="1" fill="#FFE55C"/><rect x="5" y="4" width="1" height="1" fill="#FFE55C"/><rect x="6" y="4" width="1" height="1" fill="#FFFFFF"/><rect x="7" y="4" width="1" height="1" fill="#FFFFFF"/><rect x="8" y="4" width="1" height="1" fill="#FFA800"/><rect x="9" y="4" width="1" height="1" fill="#FFA800"/><rect x="10" y="4" width="1" height="1" fill="#FFE55C"/><rect x="11" y="4" width="1" height="1" fill="#FFE55C"/><rect x="12" y="4" width="1" height="1" fill="#1B1206"/><rect x="13" y="4" width="1" height="1" fill="#1B1206"/><rect x="2" y="5" width="1" height="1" fill="#1B1206"/><rect x="3" y="5" width="1" height="1" fill="#1B1206"/><rect x="4" y="5" width="1" height="1" fill="#FFE55C"/><rect x="5" y="5" width="1" height="1" fill="#FFFFFF"/><rect x="6" y="5" width="1" height="1" fill="#FFFFFF"/><rect x="7" y="5" width="1" height="1" fill="#FFFFFF"/><rect x="8" y="5" width="1" height="1" fill="#FFFFFF"/><rect x="9" y="5" width="1" height="1" fill="#FFA800"/><rect x="10" y="5" width="1" height="1" fill="#FFA800"/><rect x="11" y="5" width="1" height="1" fill="#FFE55C"/><rect x="12" y="5" width="1" height="1" fill="#1B1206"/><rect x="13" y="5" width="1" height="1" fill="#1B1206"/><rect x="1" y="6" width="1" height="1" fill="#1B1206"/><rect x="2" y="6" width="1" height="1" fill="#1B1206"/><rect x="3" y="6" width="1" height="1" fill="#FFE55C"/><rect x="4" y="6" width="1" height="1" fill="#FFC91F"/><rect x="5" y="6" width="1" height="1" fill="#FFA800"/><rect x="6" y="6" width="1" height="1" fill="#FFFFFF"/><rect x="7" y="6" width="1" height="1" fill="#FFFFFF"/><rect x="8" y="6" width="1" height="1" fill="#FFFFFF"/><rect x="9" y="6" width="1" height="1" fill="#FFFFFF"/><rect x="10" y="6" width="1" height="1" fill="#FFA800"/><rect x="11" y="6" width="1" height="1" fill="#FFA800"/><rect x="12" y="6" width="1" height="1" fill="#FFE55C"/><rect x="13" y="6" width="1" height="1" fill="#1B1206"/><rect x="14" y="6" width="1" height="1" fill="#1B1206"/><rect x="1" y="7" width="1" height="1" fill="#1B1206"/><rect x="2" y="7" width="1" height="1" fill="#1B1206"/><rect x="3" y="7" width="1" height="1" fill="#FFE55C"/><rect x="4" y="7" width="1" height="1" fill="#FFC91F"/><rect x="5" y="7" width="1" height="1" fill="#FFA800"/><rect x="6" y="7" width="1" height="1" fill="#FFA800"/><rect x="7" y="7" width="1" height="1" fill="#FFFFFF"/><rect x="8" y="7" width="1" height="1" fill="#FFFFFF"/><rect x="9" y="7" width="1" height="1" fill="#FFFFFF"/><rect x="10" y="7" width="1" height="1" fill="#FFFFFF"/><rect x="11" y="7" width="1" height="1" fill="#FFA800"/><rect x="12" y="7" width="1" height="1" fill="#FFE55C"/><rect x="13" y="7" width="1" height="1" fill="#1B1206"/><rect x="14" y="7" width="1" height="1" fill="#1B1206"/><rect x="1" y="8" width="1" height="1" fill="#1B1206"/><rect x="2" y="8" width="1" height="1" fill="#1B1206"/><rect x="3" y="8" width="1" height="1" fill="#FFE55C"/><rect x="4" y="8" width="1" height="1" fill="#FFA800"/><rect x="5" y="8" width="1" height="1" fill="#FFA800"/><rect x="6" y="8" width="1" height="1" fill="#FFA800"/><rect x="7" y="8" width="1" height="1" fill="#FFA800"/><rect x="8" y="8" width="1" height="1" fill="#FFFFFF"/><rect x="9" y="8" width="1" height="1" fill="#FFFFFF"/><rect x="10" y="8" width="1" height="1" fill="#FFFFFF"/><rect x="11" y="8" width="1" height="1" fill="#FFFFFF"/><rect x="12" y="8" width="1" height="1" fill="#FFE55C"/><rect x="13" y="8" width="1" height="1" fill="#1B1206"/><rect x="14" y="8" width="1" height="1" fill="#1B1206"/><rect x="1" y="9" width="1" height="1" fill="#1B1206"/><rect x="2" y="9" width="1" height="1" fill="#1B1206"/><rect x="3" y="9" width="1" height="1" fill="#FFE55C"/><rect x="4" y="9" width="1" height="1" fill="#FFA800"/><rect x="5" y="9" width="1" height="1" fill="#FFA800"/><rect x="6" y="9" width="1" height="1" fill="#FFA800"/><rect x="7" y="9" width="1" height="1" fill="#FFA800"/><rect x="8" y="9" width="1" height="1" fill="#FFA800"/><rect x="9" y="9" width="1" height="1" fill="#FFFFFF"/><rect x="10" y="9" width="1" height="1" fill="#FFFFFF"/><rect x="11" y="9" width="1" height="1" fill="#FFFFFF"/><rect x="12" y="9" width="1" height="1" fill="#FFE55C"/><rect x="13" y="9" width="1" height="1" fill="#1B1206"/><rect x="14" y="9" width="1" height="1" fill="#1B1206"/><rect x="2" y="10" width="1" height="1" fill="#1B1206"/><rect x="3" y="10" width="1" height="1" fill="#1B1206"/><rect x="4" y="10" width="1" height="1" fill="#FFE55C"/><rect x="5" y="10" width="1" height="1" fill="#FFA800"/><rect x="6" y="10" width="1" height="1" fill="#FFA800"/><rect x="7" y="10" width="1" height="1" fill="#FFA800"/><rect x="8" y="10" width="1" height="1" fill="#FFA800"/><rect x="9" y="10" width="1" height="1" fill="#FFA800"/><rect x="10" y="10" width="1" height="1" fill="#FFFFFF"/><rect x="11" y="10" width="1" height="1" fill="#FFE55C"/><rect x="12" y="10" width="1" height="1" fill="#1B1206"/><rect x="13" y="10" width="1" height="1" fill="#1B1206"/><rect x="2" y="11" width="1" height="1" fill="#1B1206"/><rect x="3" y="11" width="1" height="1" fill="#1B1206"/><rect x="4" y="11" width="1" height="1" fill="#FFE55C"/><rect x="5" y="11" width="1" height="1" fill="#FFE55C"/><rect x="6" y="11" width="1" height="1" fill="#FFA800"/><rect x="7" y="11" width="1" height="1" fill="#FFA800"/><rect x="8" y="11" width="1" height="1" fill="#FFA800"/><rect x="9" y="11" width="1" height="1" fill="#FFA800"/><rect x="10" y="11" width="1" height="1" fill="#FFE55C"/><rect x="11" y="11" width="1" height="1" fill="#FFE55C"/><rect x="12" y="11" width="1" height="1" fill="#1B1206"/><rect x="13" y="11" width="1" height="1" fill="#1B1206"/><rect x="3" y="12" width="1" height="1" fill="#1B1206"/><rect x="4" y="12" width="1" height="1" fill="#1B1206"/><rect x="5" y="12" width="1" height="1" fill="#1B1206"/><rect x="6" y="12" width="1" height="1" fill="#FFE55C"/><rect x="7" y="12" width="1" height="1" fill="#FFE55C"/><rect x="8" y="12" width="1" height="1" fill="#FFE55C"/><rect x="9" y="12" width="1" height="1" fill="#FFE55C"/><rect x="10" y="12" width="1" height="1" fill="#1B1206"/><rect x="11" y="12" width="1" height="1" fill="#1B1206"/><rect x="12" y="12" width="1" height="1" fill="#1B1206"/><rect x="4" y="13" width="1" height="1" fill="#1B1206"/><rect x="5" y="13" width="1" height="1" fill="#1B1206"/><rect x="6" y="13" width="1" height="1" fill="#1B1206"/><rect x="7" y="13" width="1" height="1" fill="#1B1206"/><rect x="8" y="13" width="1" height="1" fill="#1B1206"/><rect x="9" y="13" width="1" height="1" fill="#1B1206"/><rect x="10" y="13" width="1" height="1" fill="#1B1206"/><rect x="11" y="13" width="1" height="1" fill="#1B1206"/><rect x="6" y="14" width="1" height="1" fill="#1B1206"/><rect x="7" y="14" width="1" height="1" fill="#1B1206"/><rect x="8" y="14" width="1" height="1" fill="#1B1206"/><rect x="9" y="14" width="1" height="1" fill="#1B1206"/><rect x="22" y="1" width="1" height="1" fill="#1B1206"/><rect x="23" y="1" width="1" height="1" fill="#1B1206"/><rect x="24" y="1" width="1" height="1" fill="#1B1206"/><rect x="25" y="1" width="1" height="1" fill="#1B1206"/><rect x="21" y="2" width="1" height="1" fill="#1B1206"/><rect x="22" y="2" width="1" height="1" fill="#1B1206"/><rect x="23" y="2" width="1" height="1" fill="#1B1206"/><rect x="24" y="2" width="1" height="1" fill="#1B1206"/><rect x="25" y="2" width="1" height="1" fill="#1B1206"/><rect x="26" y="2" width="1" height="1" fill="#1B1206"/><rect x="20" y="3" width="1" height="1" fill="#1B1206"/><rect x="21" y="3" width="1" height="1" fill="#1B1206"/><rect x="22" y="3" width="1" height="1" fill="#FFE55C"/><rect x="23" y="3" width="1" height="1" fill="#FFE55C"/><rect x="24" y="3" width="1" height="1" fill="#FFE55C"/><rect x="25" y="3" width="1" height="1" fill="#FFE55C"/><rect x="26" y="3" width="1" height="1" fill="#1B1206"/><rect x="27" y="3" width="1" height="1" fill="#1B1206"/><rect x="20" y="4" width="1" height="1" fill="#1B1206"/><rect x="21" y="4" width="1" height="1" fill="#1B1206"/><rect x="22" y="4" width="1" height="1" fill="#FFE55C"/><rect x="23" y="4" width="1" height="1" fill="#FFFFFF"/><rect x="24" y="4" width="1" height="1" fill="#FFA800"/><rect x="25" y="4" width="1" height="1" fill="#FFE55C"/><rect x="26" y="4" width="1" height="1" fill="#1B1206"/><rect x="27" y="4" width="1" height="1" fill="#1B1206"/><rect x="19" y="5" width="1" height="1" fill="#1B1206"/><rect x="20" y="5" width="1" height="1" fill="#1B1206"/><rect x="21" y="5" width="1" height="1" fill="#FFE55C"/><rect x="22" y="5" width="1" height="1" fill="#FFFFFF"/><rect x="23" y="5" width="1" height="1" fill="#FFFFFF"/><rect x="24" y="5" width="1" height="1" fill="#FFFFFF"/><rect x="25" y="5" width="1" height="1" fill="#FFA800"/><rect x="26" y="5" width="1" height="1" fill="#FFE55C"/><rect x="27" y="5" width="1" height="1" fill="#1B1206"/><rect x="28" y="5" width="1" height="1" fill="#1B1206"/><rect x="19" y="6" width="1" height="1" fill="#1B1206"/><rect x="20" y="6" width="1" height="1" fill="#1B1206"/><rect x="21" y="6" width="1" height="1" fill="#FFE55C"/><rect x="22" y="6" width="1" height="1" fill="#FFFFFF"/><rect x="23" y="6" width="1" height="1" fill="#FFFFFF"/><rect x="24" y="6" width="1" height="1" fill="#FFFFFF"/><rect x="25" y="6" width="1" height="1" fill="#FFFFFF"/><rect x="26" y="6" width="1" height="1" fill="#FFE55C"/><rect x="27" y="6" width="1" height="1" fill="#1B1206"/><rect x="28" y="6" width="1" height="1" fill="#1B1206"/><rect x="19" y="7" width="1" height="1" fill="#1B1206"/><rect x="20" y="7" width="1" height="1" fill="#1B1206"/><rect x="21" y="7" width="1" height="1" fill="#FFE55C"/><rect x="22" y="7" width="1" height="1" fill="#FFA800"/><rect x="23" y="7" width="1" height="1" fill="#FFFFFF"/><rect x="24" y="7" width="1" height="1" fill="#FFFFFF"/><rect x="25" y="7" width="1" height="1" fill="#FFFFFF"/><rect x="26" y="7" width="1" height="1" fill="#FFE55C"/><rect x="27" y="7" width="1" height="1" fill="#1B1206"/><rect x="28" y="7" width="1" height="1" fill="#1B1206"/><rect x="19" y="8" width="1" height="1" fill="#1B1206"/><rect x="20" y="8" width="1" height="1" fill="#1B1206"/><rect x="21" y="8" width="1" height="1" fill="#FFE55C"/><rect x="22" y="8" width="1" height="1" fill="#FFA800"/><rect x="23" y="8" width="1" height="1" fill="#FFA800"/><rect x="24" y="8" width="1" height="1" fill="#FFFFFF"/><rect x="25" y="8" width="1" height="1" fill="#FFFFFF"/><rect x="26" y="8" width="1" height="1" fill="#FFE55C"/><rect x="27" y="8" width="1" height="1" fill="#1B1206"/><rect x="28" y="8" width="1" height="1" fill="#1B1206"/><rect x="19" y="9" width="1" height="1" fill="#1B1206"/><rect x="20" y="9" width="1" height="1" fill="#1B1206"/><rect x="21" y="9" width="1" height="1" fill="#FFE55C"/><rect x="22" y="9" width="1" height="1" fill="#FFA800"/><rect x="23" y="9" width="1" height="1" fill="#FFA800"/><rect x="24" y="9" width="1" height="1" fill="#FFA800"/><rect x="25" y="9" width="1" height="1" fill="#FFFFFF"/><rect x="26" y="9" width="1" height="1" fill="#FFE55C"/><rect x="27" y="9" width="1" height="1" fill="#1B1206"/><rect x="28" y="9" width="1" height="1" fill="#1B1206"/><rect x="19" y="10" width="1" height="1" fill="#1B1206"/><rect x="20" y="10" width="1" height="1" fill="#1B1206"/><rect x="21" y="10" width="1" height="1" fill="#FFE55C"/><rect x="22" y="10" width="1" height="1" fill="#FFA800"/><rect x="23" y="10" width="1" height="1" fill="#FFA800"/><rect x="24" y="10" width="1" height="1" fill="#FFA800"/><rect x="25" y="10" width="1" height="1" fill="#FFA800"/><rect x="26" y="10" width="1" height="1" fill="#FFE55C"/><rect x="27" y="10" width="1" height="1" fill="#1B1206"/><rect x="28" y="10" width="1" height="1" fill="#1B1206"/><rect x="20" y="11" width="1" height="1" fill="#1B1206"/><rect x="21" y="11" width="1" height="1" fill="#1B1206"/><rect x="22" y="11" width="1" height="1" fill="#FFE55C"/><rect x="23" y="11" width="1" height="1" fill="#FFA800"/><rect x="24" y="11" width="1" height="1" fill="#FFA800"/><rect x="25" y="11" width="1" height="1" fill="#FFE55C"/><rect x="26" y="11" width="1" height="1" fill="#1B1206"/><rect x="27" y="11" width="1" height="1" fill="#1B1206"/><rect x="20" y="12" width="1" height="1" fill="#1B1206"/><rect x="21" y="12" width="1" height="1" fill="#1B1206"/><rect x="22" y="12" width="1" height="1" fill="#FFE55C"/><rect x="23" y="12" width="1" height="1" fill="#FFE55C"/><rect x="24" y="12" width="1" height="1" fill="#FFE55C"/><rect x="25" y="12" width="1" height="1" fill="#FFE55C"/><rect x="26" y="12" width="1" height="1" fill="#1B1206"/><rect x="27" y="12" width="1" height="1" fill="#1B1206"/><rect x="21" y="13" width="1" height="1" fill="#1B1206"/><rect x="22" y="13" width="1" height="1" fill="#1B1206"/><rect x="23" y="13" width="1" height="1" fill="#1B1206"/><rect x="24" y="13" width="1" height="1" fill="#1B1206"/><rect x="25" y="13" width="1" height="1" fill="#1B1206"/><rect x="26" y="13" width="1" height="1" fill="#1B1206"/><rect x="22" y="14" width="1" height="1" fill="#1B1206"/><rect x="23" y="14" width="1" height="1" fill="#1B1206"/><rect x="24" y="14" width="1" height="1" fill="#1B1206"/><rect x="25" y="14" width="1" height="1" fill="#1B1206"/><rect x="39" y="2" width="1" height="1" fill="#1B1206"/><rect x="40" y="2" width="1" height="1" fill="#1B1206"/><rect x="39" y="3" width="1" height="1" fill="#1B1206"/><rect x="40" y="3" width="1" height="1" fill="#1B1206"/><rect x="39" y="4" width="1" height="1" fill="#1B1206"/><rect x="40" y="4" width="1" height="1" fill="#1B1206"/><rect x="39" y="5" width="1" height="1" fill="#1B1206"/><rect x="40" y="5" width="1" height="1" fill="#1B1206"/><rect x="39" y="6" width="1" height="1" fill="#1B1206"/><rect x="40" y="6" width="1" height="1" fill="#1B1206"/><rect x="39" y="7" width="1" height="1" fill="#1B1206"/><rect x="40" y="7" width="1" height="1" fill="#1B1206"/><rect x="39" y="8" width="1" height="1" fill="#1B1206"/><rect x="40" y="8" width="1" height="1" fill="#1B1206"/><rect x="39" y="9" width="1" height="1" fill="#1B1206"/><rect x="40" y="9" width="1" height="1" fill="#1B1206"/><rect x="39" y="10" width="1" height="1" fill="#1B1206"/><rect x="40" y="10" width="1" height="1" fill="#1B1206"/><rect x="39" y="11" width="1" height="1" fill="#1B1206"/><rect x="40" y="11" width="1" height="1" fill="#1B1206"/><rect x="39" y="12" width="1" height="1" fill="#1B1206"/><rect x="40" y="12" width="1" height="1" fill="#1B1206"/><rect x="39" y="13" width="1" height="1" fill="#1B1206"/><rect x="40" y="13" width="1" height="1" fill="#1B1206"/><rect x="54" y="1" width="1" height="1" fill="#1B1206"/><rect x="55" y="1" width="1" height="1" fill="#1B1206"/><rect x="56" y="1" width="1" height="1" fill="#1B1206"/><rect x="57" y="1" width="1" height="1" fill="#1B1206"/><rect x="53" y="2" width="1" height="1" fill="#1B1206"/><rect x="54" y="2" width="1" height="1" fill="#1B1206"/><rect x="55" y="2" width="1" height="1" fill="#1B1206"/><rect x="56" y="2" width="1" height="1" fill="#1B1206"/><rect x="57" y="2" width="1" height="1" fill="#1B1206"/><rect x="58" y="2" width="1" height="1" fill="#1B1206"/><rect x="52" y="3" width="1" height="1" fill="#1B1206"/><rect x="53" y="3" width="1" height="1" fill="#1B1206"/><rect x="54" y="3" width="1" height="1" fill="#FFE55C"/><rect x="55" y="3" width="1" height="1" fill="#FFE55C"/><rect x="56" y="3" width="1" height="1" fill="#FFE55C"/><rect x="57" y="3" width="1" height="1" fill="#FFE55C"/><rect x="58" y="3" width="1" height="1" fill="#1B1206"/><rect x="59" y="3" width="1" height="1" fill="#1B1206"/><rect x="52" y="4" width="1" height="1" fill="#1B1206"/><rect x="53" y="4" width="1" height="1" fill="#1B1206"/><rect x="54" y="4" width="1" height="1" fill="#FFE55C"/><rect x="55" y="4" width="1" height="1" fill="#FFA800"/><rect x="56" y="4" width="1" height="1" fill="#FFFFFF"/><rect x="57" y="4" width="1" height="1" fill="#FFE55C"/><rect x="58" y="4" width="1" height="1" fill="#1B1206"/><rect x="59" y="4" width="1" height="1" fill="#1B1206"/><rect x="51" y="5" width="1" height="1" fill="#1B1206"/><rect x="52" y="5" width="1" height="1" fill="#1B1206"/><rect x="53" y="5" width="1" height="1" fill="#FFE55C"/><rect x="54" y="5" width="1" height="1" fill="#FFA800"/><rect x="55" y="5" width="1" height="1" fill="#FFFFFF"/><rect x="56" y="5" width="1" height="1" fill="#FFFFFF"/><rect x="57" y="5" width="1" height="1" fill="#FFFFFF"/><rect x="58" y="5" width="1" height="1" fill="#FFE55C"/><rect x="59" y="5" width="1" height="1" fill="#1B1206"/><rect x="60" y="5" width="1" height="1" fill="#1B1206"/><rect x="51" y="6" width="1" height="1" fill="#1B1206"/><rect x="52" y="6" width="1" height="1" fill="#1B1206"/><rect x="53" y="6" width="1" height="1" fill="#FFE55C"/><rect x="54" y="6" width="1" height="1" fill="#FFFFFF"/><rect x="55" y="6" width="1" height="1" fill="#FFFFFF"/><rect x="56" y="6" width="1" height="1" fill="#FFFFFF"/><rect x="57" y="6" width="1" height="1" fill="#FFFFFF"/><rect x="58" y="6" width="1" height="1" fill="#FFE55C"/><rect x="59" y="6" width="1" height="1" fill="#1B1206"/><rect x="60" y="6" width="1" height="1" fill="#1B1206"/><rect x="51" y="7" width="1" height="1" fill="#1B1206"/><rect x="52" y="7" width="1" height="1" fill="#1B1206"/><rect x="53" y="7" width="1" height="1" fill="#FFE55C"/><rect x="54" y="7" width="1" height="1" fill="#FFFFFF"/><rect x="55" y="7" width="1" height="1" fill="#FFFFFF"/><rect x="56" y="7" width="1" height="1" fill="#FFFFFF"/><rect x="57" y="7" width="1" height="1" fill="#FFA800"/><rect x="58" y="7" width="1" height="1" fill="#FFE55C"/><rect x="59" y="7" width="1" height="1" fill="#1B1206"/><rect x="60" y="7" width="1" height="1" fill="#1B1206"/><rect x="51" y="8" width="1" height="1" fill="#1B1206"/><rect x="52" y="8" width="1" height="1" fill="#1B1206"/><rect x="53" y="8" width="1" height="1" fill="#FFE55C"/><rect x="54" y="8" width="1" height="1" fill="#FFFFFF"/><rect x="55" y="8" width="1" height="1" fill="#FFFFFF"/><rect x="56" y="8" width="1" height="1" fill="#FFA800"/><rect x="57" y="8" width="1" height="1" fill="#FFA800"/><rect x="58" y="8" width="1" height="1" fill="#FFE55C"/><rect x="59" y="8" width="1" height="1" fill="#1B1206"/><rect x="60" y="8" width="1" height="1" fill="#1B1206"/><rect x="51" y="9" width="1" height="1" fill="#1B1206"/><rect x="52" y="9" width="1" height="1" fill="#1B1206"/><rect x="53" y="9" width="1" height="1" fill="#FFE55C"/><rect x="54" y="9" width="1" height="1" fill="#FFFFFF"/><rect x="55" y="9" width="1" height="1" fill="#FFA800"/><rect x="56" y="9" width="1" height="1" fill="#FFA800"/><rect x="57" y="9" width="1" height="1" fill="#FFA800"/><rect x="58" y="9" width="1" height="1" fill="#FFE55C"/><rect x="59" y="9" width="1" height="1" fill="#1B1206"/><rect x="60" y="9" width="1" height="1" fill="#1B1206"/><rect x="51" y="10" width="1" height="1" fill="#1B1206"/><rect x="52" y="10" width="1" height="1" fill="#1B1206"/><rect x="53" y="10" width="1" height="1" fill="#FFE55C"/><rect x="54" y="10" width="1" height="1" fill="#FFA800"/><rect x="55" y="10" width="1" height="1" fill="#FFA800"/><rect x="56" y="10" width="1" height="1" fill="#FFA800"/><rect x="57" y="10" width="1" height="1" fill="#FFA800"/><rect x="58" y="10" width="1" height="1" fill="#FFE55C"/><rect x="59" y="10" width="1" height="1" fill="#1B1206"/><rect x="60" y="10" width="1" height="1" fill="#1B1206"/><rect x="52" y="11" width="1" height="1" fill="#1B1206"/><rect x="53" y="11" width="1" height="1" fill="#1B1206"/><rect x="54" y="11" width="1" height="1" fill="#FFE55C"/><rect x="55" y="11" width="1" height="1" fill="#FFA800"/><rect x="56" y="11" width="1" height="1" fill="#FFA800"/><rect x="57" y="11" width="1" height="1" fill="#FFE55C"/><rect x="58" y="11" width="1" height="1" fill="#1B1206"/><rect x="59" y="11" width="1" height="1" fill="#1B1206"/><rect x="52" y="12" width="1" height="1" fill="#1B1206"/><rect x="53" y="12" width="1" height="1" fill="#1B1206"/><rect x="54" y="12" width="1" height="1" fill="#FFE55C"/><rect x="55" y="12" width="1" height="1" fill="#FFE55C"/><rect x="56" y="12" width="1" height="1" fill="#FFE55C"/><rect x="57" y="12" width="1" height="1" fill="#FFE55C"/><rect x="58" y="12" width="1" height="1" fill="#1B1206"/><rect x="59" y="12" width="1" height="1" fill="#1B1206"/><rect x="53" y="13" width="1" height="1" fill="#1B1206"/><rect x="54" y="13" width="1" height="1" fill="#1B1206"/><rect x="55" y="13" width="1" height="1" fill="#1B1206"/><rect x="56" y="13" width="1" height="1" fill="#1B1206"/><rect x="57" y="13" width="1" height="1" fill="#1B1206"/><rect x="58" y="13" width="1" height="1" fill="#1B1206"/><rect x="54" y="14" width="1" height="1" fill="#1B1206"/><rect x="55" y="14" width="1" height="1" fill="#1B1206"/><rect x="56" y="14" width="1" height="1" fill="#1B1206"/><rect x="57" y="14" width="1" height="1" fill="#1B1206"/><rect x="70" y="1" width="1" height="1" fill="#1B1206"/><rect x="71" y="1" width="1" height="1" fill="#1B1206"/><rect x="72" y="1" width="1" height="1" fill="#1B1206"/><rect x="73" y="1" width="1" height="1" fill="#1B1206"/><rect x="68" y="2" width="1" height="1" fill="#1B1206"/><rect x="69" y="2" width="1" height="1" fill="#1B1206"/><rect x="70" y="2" width="1" height="1" fill="#1B1206"/><rect x="71" y="2" width="1" height="1" fill="#1B1206"/><rect x="72" y="2" width="1" height="1" fill="#1B1206"/><rect x="73" y="2" width="1" height="1" fill="#1B1206"/><rect x="74" y="2" width="1" height="1" fill="#1B1206"/><rect x="75" y="2" width="1" height="1" fill="#1B1206"/><rect x="67" y="3" width="1" height="1" fill="#1B1206"/><rect x="68" y="3" width="1" height="1" fill="#1B1206"/><rect x="69" y="3" width="1" height="1" fill="#1B1206"/><rect x="70" y="3" width="1" height="1" fill="#FFE55C"/><rect x="71" y="3" width="1" height="1" fill="#FFE55C"/><rect x="72" y="3" width="1" height="1" fill="#FFE55C"/><rect x="73" y="3" width="1" height="1" fill="#FFE55C"/><rect x="74" y="3" width="1" height="1" fill="#1B1206"/><rect x="75" y="3" width="1" height="1" fill="#1B1206"/><rect x="76" y="3" width="1" height="1" fill="#1B1206"/><rect x="66" y="4" width="1" height="1" fill="#1B1206"/><rect x="67" y="4" width="1" height="1" fill="#1B1206"/><rect x="68" y="4" width="1" height="1" fill="#FFE55C"/><rect x="69" y="4" width="1" height="1" fill="#FFE55C"/><rect x="70" y="4" width="1" height="1" fill="#FFA800"/><rect x="71" y="4" width="1" height="1" fill="#FFA800"/><rect x="72" y="4" width="1" height="1" fill="#FFFFFF"/><rect x="73" y="4" width="1" height="1" fill="#FFFFFF"/><rect x="74" y="4" width="1" height="1" fill="#FFE55C"/><rect x="75" y="4" width="1" height="1" fill="#FFE55C"/><rect x="76" y="4" width="1" height="1" fill="#1B1206"/><rect x="77" y="4" width="1" height="1" fill="#1B1206"/><rect x="66" y="5" width="1" height="1" fill="#1B1206"/><rect x="67" y="5" width="1" height="1" fill="#1B1206"/><rect x="68" y="5" width="1" height="1" fill="#FFE55C"/><rect x="69" y="5" width="1" height="1" fill="#FFA800"/><rect x="70" y="5" width="1" height="1" fill="#FFA800"/><rect x="71" y="5" width="1" height="1" fill="#FFFFFF"/><rect x="72" y="5" width="1" height="1" fill="#FFFFFF"/><rect x="73" y="5" width="1" height="1" fill="#FFFFFF"/><rect x="74" y="5" width="1" height="1" fill="#FFFFFF"/><rect x="75" y="5" width="1" height="1" fill="#FFE55C"/><rect x="76" y="5" width="1" height="1" fill="#1B1206"/><rect x="77" y="5" width="1" height="1" fill="#1B1206"/><rect x="65" y="6" width="1" height="1" fill="#1B1206"/><rect x="66" y="6" width="1" height="1" fill="#1B1206"/><rect x="67" y="6" width="1" height="1" fill="#FFE55C"/><rect x="68" y="6" width="1" height="1" fill="#FFA800"/><rect x="69" y="6" width="1" height="1" fill="#FFA800"/><rect x="70" y="6" width="1" height="1" fill="#FFFFFF"/><rect x="71" y="6" width="1" height="1" fill="#FFFFFF"/><rect x="72" y="6" width="1" height="1" fill="#FFFFFF"/><rect x="73" y="6" width="1" height="1" fill="#FFFFFF"/><rect x="74" y="6" width="1" height="1" fill="#FFA800"/><rect x="75" y="6" width="1" height="1" fill="#FFC91F"/><rect x="76" y="6" width="1" height="1" fill="#FFE55C"/><rect x="77" y="6" width="1" height="1" fill="#1B1206"/><rect x="78" y="6" width="1" height="1" fill="#1B1206"/><rect x="65" y="7" width="1" height="1" fill="#1B1206"/><rect x="66" y="7" width="1" height="1" fill="#1B1206"/><rect x="67" y="7" width="1" height="1" fill="#FFE55C"/><rect x="68" y="7" width="1" height="1" fill="#FFA800"/><rect x="69" y="7" width="1" height="1" fill="#FFFFFF"/><rect x="70" y="7" width="1" height="1" fill="#FFFFFF"/><rect x="71" y="7" width="1" height="1" fill="#FFFFFF"/><rect x="72" y="7" width="1" height="1" fill="#FFFFFF"/><rect x="73" y="7" width="1" height="1" fill="#FFA800"/><rect x="74" y="7" width="1" height="1" fill="#FFA800"/><rect x="75" y="7" width="1" height="1" fill="#FFC91F"/><rect x="76" y="7" width="1" height="1" fill="#FFE55C"/><rect x="77" y="7" width="1" height="1" fill="#1B1206"/><rect x="78" y="7" width="1" height="1" fill="#1B1206"/><rect x="65" y="8" width="1" height="1" fill="#1B1206"/><rect x="66" y="8" width="1" height="1" fill="#1B1206"/><rect x="67" y="8" width="1" height="1" fill="#FFE55C"/><rect x="68" y="8" width="1" height="1" fill="#FFFFFF"/><rect x="69" y="8" width="1" height="1" fill="#FFFFFF"/><rect x="70" y="8" width="1" height="1" fill="#FFFFFF"/><rect x="71" y="8" width="1" height="1" fill="#FFFFFF"/><rect x="72" y="8" width="1" height="1" fill="#FFA800"/><rect x="73" y="8" width="1" height="1" fill="#FFA800"/><rect x="74" y="8" width="1" height="1" fill="#FFA800"/><rect x="75" y="8" width="1" height="1" fill="#FFA800"/><rect x="76" y="8" width="1" height="1" fill="#FFE55C"/><rect x="77" y="8" width="1" height="1" fill="#1B1206"/><rect x="78" y="8" width="1" height="1" fill="#1B1206"/><rect x="65" y="9" width="1" height="1" fill="#1B1206"/><rect x="66" y="9" width="1" height="1" fill="#1B1206"/><rect x="67" y="9" width="1" height="1" fill="#FFE55C"/><rect x="68" y="9" width="1" height="1" fill="#FFFFFF"/><rect x="69" y="9" width="1" height="1" fill="#FFFFFF"/><rect x="70" y="9" width="1" height="1" fill="#FFFFFF"/><rect x="71" y="9" width="1" height="1" fill="#FFA800"/><rect x="72" y="9" width="1" height="1" fill="#FFA800"/><rect x="73" y="9" width="1" height="1" fill="#FFA800"/><rect x="74" y="9" width="1" height="1" fill="#FFA800"/><rect x="75" y="9" width="1" height="1" fill="#FFA800"/><rect x="76" y="9" width="1" height="1" fill="#FFE55C"/><rect x="77" y="9" width="1" height="1" fill="#1B1206"/><rect x="78" y="9" width="1" height="1" fill="#1B1206"/><rect x="66" y="10" width="1" height="1" fill="#1B1206"/><rect x="67" y="10" width="1" height="1" fill="#1B1206"/><rect x="68" y="10" width="1" height="1" fill="#FFE55C"/><rect x="69" y="10" width="1" height="1" fill="#FFFFFF"/><rect x="70" y="10" width="1" height="1" fill="#FFA800"/><rect x="71" y="10" width="1" height="1" fill="#FFA800"/><rect x="72" y="10" width="1" height="1" fill="#FFA800"/><rect x="73" y="10" width="1" height="1" fill="#FFA800"/><rect x="74" y="10" width="1" height="1" fill="#FFA800"/><rect x="75" y="10" width="1" height="1" fill="#FFE55C"/><rect x="76" y="10" width="1" height="1" fill="#1B1206"/><rect x="77" y="10" width="1" height="1" fill="#1B1206"/><rect x="66" y="11" width="1" height="1" fill="#1B1206"/><rect x="67" y="11" width="1" height="1" fill="#1B1206"/><rect x="68" y="11" width="1" height="1" fill="#FFE55C"/><rect x="69" y="11" width="1" height="1" fill="#FFE55C"/><rect x="70" y="11" width="1" height="1" fill="#FFA800"/><rect x="71" y="11" width="1" height="1" fill="#FFA800"/><rect x="72" y="11" width="1" height="1" fill="#FFA800"/><rect x="73" y="11" width="1" height="1" fill="#FFA800"/><rect x="74" y="11" width="1" height="1" fill="#FFE55C"/><rect x="75" y="11" width="1" height="1" fill="#FFE55C"/><rect x="76" y="11" width="1" height="1" fill="#1B1206"/><rect x="77" y="11" width="1" height="1" fill="#1B1206"/><rect x="67" y="12" width="1" height="1" fill="#1B1206"/><rect x="68" y="12" width="1" height="1" fill="#1B1206"/><rect x="69" y="12" width="1" height="1" fill="#1B1206"/><rect x="70" y="12" width="1" height="1" fill="#FFE55C"/><rect x="71" y="12" width="1" height="1" fill="#FFE55C"/><rect x="72" y="12" width="1" height="1" fill="#FFE55C"/><rect x="73" y="12" width="1" height="1" fill="#FFE55C"/><rect x="74" y="12" width="1" height="1" fill="#1B1206"/><rect x="75" y="12" width="1" height="1" fill="#1B1206"/><rect x="76" y="12" width="1" height="1" fill="#1B1206"/><rect x="68" y="13" width="1" height="1" fill="#1B1206"/><rect x="69" y="13" width="1" height="1" fill="#1B1206"/><rect x="70" y="13" width="1" height="1" fill="#1B1206"/><rect x="71" y="13" width="1" height="1" fill="#1B1206"/><rect x="72" y="13" width="1" height="1" fill="#1B1206"/><rect x="73" y="13" width="1" height="1" fill="#1B1206"/><rect x="74" y="13" width="1" height="1" fill="#1B1206"/><rect x="75" y="13" width="1" height="1" fill="#1B1206"/><rect x="70" y="14" width="1" height="1" fill="#1B1206"/><rect x="71" y="14" width="1" height="1" fill="#1B1206"/><rect x="72" y="14" width="1" height="1" fill="#1B1206"/><rect x="73" y="14" width="1" height="1" fill="#1B1206"/><rect x="86" y="1" width="1" height="1" fill="#1B1206"/><rect x="87" y="1" width="1" height="1" fill="#1B1206"/><rect x="88" y="1" width="1" height="1" fill="#1B1206"/><rect x="89" y="1" width="1" height="1" fill="#1B1206"/><rect x="85" y="2" width="1" height="1" fill="#1B1206"/><rect x="86" y="2" width="1" height="1" fill="#1B1206"/><rect x="87" y="2" width="1" height="1" fill="#1B1206"/><rect x="88" y="2" width="1" height="1" fill="#1B1206"/><rect x="89" y="2" width="1" height="1" fill="#1B1206"/><rect x="90" y="2" width="1" height="1" fill="#1B1206"/><rect x="84" y="3" width="1" height="1" fill="#1B1206"/><rect x="85" y="3" width="1" height="1" fill="#1B1206"/><rect x="86" y="3" width="1" height="1" fill="#FFE55C"/><rect x="87" y="3" width="1" height="1" fill="#FFE55C"/><rect x="88" y="3" width="1" height="1" fill="#FFE55C"/><rect x="89" y="3" width="1" height="1" fill="#FFE55C"/><rect x="90" y="3" width="1" height="1" fill="#1B1206"/><rect x="91" y="3" width="1" height="1" fill="#1B1206"/><rect x="84" y="4" width="1" height="1" fill="#1B1206"/><rect x="85" y="4" width="1" height="1" fill="#1B1206"/><rect x="86" y="4" width="1" height="1" fill="#FFE55C"/><rect x="87" y="4" width="1" height="1" fill="#FFA800"/><rect x="88" y="4" width="1" height="1" fill="#FFFFFF"/><rect x="89" y="4" width="1" height="1" fill="#FFE55C"/><rect x="90" y="4" width="1" height="1" fill="#1B1206"/><rect x="91" y="4" width="1" height="1" fill="#1B1206"/><rect x="83" y="5" width="1" height="1" fill="#1B1206"/><rect x="84" y="5" width="1" height="1" fill="#1B1206"/><rect x="85" y="5" width="1" height="1" fill="#FFE55C"/><rect x="86" y="5" width="1" height="1" fill="#FFA800"/><rect x="87" y="5" width="1" height="1" fill="#FFFFFF"/><rect x="88" y="5" width="1" height="1" fill="#FFFFFF"/><rect x="89" y="5" width="1" height="1" fill="#FFFFFF"/><rect x="90" y="5" width="1" height="1" fill="#FFE55C"/><rect x="91" y="5" width="1" height="1" fill="#1B1206"/><rect x="92" y="5" width="1" height="1" fill="#1B1206"/><rect x="83" y="6" width="1" height="1" fill="#1B1206"/><rect x="84" y="6" width="1" height="1" fill="#1B1206"/><rect x="85" y="6" width="1" height="1" fill="#FFE55C"/><rect x="86" y="6" width="1" height="1" fill="#FFFFFF"/><rect x="87" y="6" width="1" height="1" fill="#FFFFFF"/><rect x="88" y="6" width="1" height="1" fill="#FFFFFF"/><rect x="89" y="6" width="1" height="1" fill="#FFFFFF"/><rect x="90" y="6" width="1" height="1" fill="#FFE55C"/><rect x="91" y="6" width="1" height="1" fill="#1B1206"/><rect x="92" y="6" width="1" height="1" fill="#1B1206"/><rect x="83" y="7" width="1" height="1" fill="#1B1206"/><rect x="84" y="7" width="1" height="1" fill="#1B1206"/><rect x="85" y="7" width="1" height="1" fill="#FFE55C"/><rect x="86" y="7" width="1" height="1" fill="#FFFFFF"/><rect x="87" y="7" width="1" height="1" fill="#FFFFFF"/><rect x="88" y="7" width="1" height="1" fill="#FFFFFF"/><rect x="89" y="7" width="1" height="1" fill="#FFA800"/><rect x="90" y="7" width="1" height="1" fill="#FFE55C"/><rect x="91" y="7" width="1" height="1" fill="#1B1206"/><rect x="92" y="7" width="1" height="1" fill="#1B1206"/><rect x="83" y="8" width="1" height="1" fill="#1B1206"/><rect x="84" y="8" width="1" height="1" fill="#1B1206"/><rect x="85" y="8" width="1" height="1" fill="#FFE55C"/><rect x="86" y="8" width="1" height="1" fill="#FFFFFF"/><rect x="87" y="8" width="1" height="1" fill="#FFFFFF"/><rect x="88" y="8" width="1" height="1" fill="#FFA800"/><rect x="89" y="8" width="1" height="1" fill="#FFA800"/><rect x="90" y="8" width="1" height="1" fill="#FFE55C"/><rect x="91" y="8" width="1" height="1" fill="#1B1206"/><rect x="92" y="8" width="1" height="1" fill="#1B1206"/><rect x="83" y="9" width="1" height="1" fill="#1B1206"/><rect x="84" y="9" width="1" height="1" fill="#1B1206"/><rect x="85" y="9" width="1" height="1" fill="#FFE55C"/><rect x="86" y="9" width="1" height="1" fill="#FFFFFF"/><rect x="87" y="9" width="1" height="1" fill="#FFA800"/><rect x="88" y="9" width="1" height="1" fill="#FFA800"/><rect x="89" y="9" width="1" height="1" fill="#FFA800"/><rect x="90" y="9" width="1" height="1" fill="#FFE55C"/><rect x="91" y="9" width="1" height="1" fill="#1B1206"/><rect x="92" y="9" width="1" height="1" fill="#1B1206"/><rect x="83" y="10" width="1" height="1" fill="#1B1206"/><rect x="84" y="10" width="1" height="1" fill="#1B1206"/><rect x="85" y="10" width="1" height="1" fill="#FFE55C"/><rect x="86" y="10" width="1" height="1" fill="#FFA800"/><rect x="87" y="10" width="1" height="1" fill="#FFA800"/><rect x="88" y="10" width="1" height="1" fill="#FFA800"/><rect x="89" y="10" width="1" height="1" fill="#FFA800"/><rect x="90" y="10" width="1" height="1" fill="#FFE55C"/><rect x="91" y="10" width="1" height="1" fill="#1B1206"/><rect x="92" y="10" width="1" height="1" fill="#1B1206"/><rect x="84" y="11" width="1" height="1" fill="#1B1206"/><rect x="85" y="11" width="1" height="1" fill="#1B1206"/><rect x="86" y="11" width="1" height="1" fill="#FFE55C"/><rect x="87" y="11" width="1" height="1" fill="#FFA800"/><rect x="88" y="11" width="1" height="1" fill="#FFA800"/><rect x="89" y="11" width="1" height="1" fill="#FFE55C"/><rect x="90" y="11" width="1" height="1" fill="#1B1206"/><rect x="91" y="11" width="1" height="1" fill="#1B1206"/><rect x="84" y="12" width="1" height="1" fill="#1B1206"/><rect x="85" y="12" width="1" height="1" fill="#1B1206"/><rect x="86" y="12" width="1" height="1" fill="#FFE55C"/><rect x="87" y="12" width="1" height="1" fill="#FFE55C"/><rect x="88" y="12" width="1" height="1" fill="#FFE55C"/><rect x="89" y="12" width="1" height="1" fill="#FFE55C"/><rect x="90" y="12" width="1" height="1" fill="#1B1206"/><rect x="91" y="12" width="1" height="1" fill="#1B1206"/><rect x="85" y="13" width="1" height="1" fill="#1B1206"/><rect x="86" y="13" width="1" height="1" fill="#1B1206"/><rect x="87" y="13" width="1" height="1" fill="#1B1206"/><rect x="88" y="13" width="1" height="1" fill="#1B1206"/><rect x="89" y="13" width="1" height="1" fill="#1B1206"/><rect x="90" y="13" width="1" height="1" fill="#1B1206"/><rect x="86" y="14" width="1" height="1" fill="#1B1206"/><rect x="87" y="14" width="1" height="1" fill="#1B1206"/><rect x="88" y="14" width="1" height="1" fill="#1B1206"/><rect x="89" y="14" width="1" height="1" fill="#1B1206"/><rect x="103" y="2" width="1" height="1" fill="#1B1206"/><rect x="104" y="2" width="1" height="1" fill="#1B1206"/><rect x="103" y="3" width="1" height="1" fill="#1B1206"/><rect x="104" y="3" width="1" height="1" fill="#1B1206"/><rect x="103" y="4" width="1" height="1" fill="#1B1206"/><rect x="104" y="4" width="1" height="1" fill="#1B1206"/><rect x="103" y="5" width="1" height="1" fill="#1B1206"/><rect x="104" y="5" width="1" height="1" fill="#1B1206"/><rect x="103" y="6" width="1" height="1" fill="#1B1206"/><rect x="104" y="6" width="1" height="1" fill="#1B1206"/><rect x="103" y="7" width="1" height="1" fill="#1B1206"/><rect x="104" y="7" width="1" height="1" fill="#1B1206"/><rect x="103" y="8" width="1" height="1" fill="#1B1206"/><rect x="104" y="8" width="1" height="1" fill="#1B1206"/><rect x="103" y="9" width="1" height="1" fill="#1B1206"/><rect x="104" y="9" width="1" height="1" fill="#1B1206"/><rect x="103" y="10" width="1" height="1" fill="#1B1206"/><rect x="104" y="10" width="1" height="1" fill="#1B1206"/><rect x="103" y="11" width="1" height="1" fill="#1B1206"/><rect x="104" y="11" width="1" height="1" fill="#1B1206"/><rect x="103" y="12" width="1" height="1" fill="#1B1206"/><rect x="104" y="12" width="1" height="1" fill="#1B1206"/><rect x="103" y="13" width="1" height="1" fill="#1B1206"/><rect x="104" y="13" width="1" height="1" fill="#1B1206"/><rect x="118" y="1" width="1" height="1" fill="#1B1206"/><rect x="119" y="1" width="1" height="1" fill="#1B1206"/><rect x="120" y="1" width="1" height="1" fill="#1B1206"/><rect x="121" y="1" width="1" height="1" fill="#1B1206"/><rect x="117" y="2" width="1" height="1" fill="#1B1206"/><rect x="118" y="2" width="1" height="1" fill="#1B1206"/><rect x="119" y="2" width="1" height="1" fill="#1B1206"/><rect x="120" y="2" width="1" height="1" fill="#1B1206"/><rect x="121" y="2" width="1" height="1" fill="#1B1206"/><rect x="122" y="2" width="1" height="1" fill="#1B1206"/><rect x="116" y="3" width="1" height="1" fill="#1B1206"/><rect x="117" y="3" width="1" height="1" fill="#1B1206"/><rect x="118" y="3" width="1" height="1" fill="#FFE55C"/><rect x="119" y="3" width="1" height="1" fill="#FFE55C"/><rect x="120" y="3" width="1" height="1" fill="#FFE55C"/><rect x="121" y="3" width="1" height="1" fill="#FFE55C"/><rect x="122" y="3" width="1" height="1" fill="#1B1206"/><rect x="123" y="3" width="1" height="1" fill="#1B1206"/><rect x="116" y="4" width="1" height="1" fill="#1B1206"/><rect x="117" y="4" width="1" height="1" fill="#1B1206"/><rect x="118" y="4" width="1" height="1" fill="#FFE55C"/><rect x="119" y="4" width="1" height="1" fill="#FFFFFF"/><rect x="120" y="4" width="1" height="1" fill="#FFA800"/><rect x="121" y="4" width="1" height="1" fill="#FFE55C"/><rect x="122" y="4" width="1" height="1" fill="#1B1206"/><rect x="123" y="4" width="1" height="1" fill="#1B1206"/><rect x="115" y="5" width="1" height="1" fill="#1B1206"/><rect x="116" y="5" width="1" height="1" fill="#1B1206"/><rect x="117" y="5" width="1" height="1" fill="#FFE55C"/><rect x="118" y="5" width="1" height="1" fill="#FFFFFF"/><rect x="119" y="5" width="1" height="1" fill="#FFFFFF"/><rect x="120" y="5" width="1" height="1" fill="#FFFFFF"/><rect x="121" y="5" width="1" height="1" fill="#FFA800"/><rect x="122" y="5" width="1" height="1" fill="#FFE55C"/><rect x="123" y="5" width="1" height="1" fill="#1B1206"/><rect x="124" y="5" width="1" height="1" fill="#1B1206"/><rect x="115" y="6" width="1" height="1" fill="#1B1206"/><rect x="116" y="6" width="1" height="1" fill="#1B1206"/><rect x="117" y="6" width="1" height="1" fill="#FFE55C"/><rect x="118" y="6" width="1" height="1" fill="#FFFFFF"/><rect x="119" y="6" width="1" height="1" fill="#FFFFFF"/><rect x="120" y="6" width="1" height="1" fill="#FFFFFF"/><rect x="121" y="6" width="1" height="1" fill="#FFFFFF"/><rect x="122" y="6" width="1" height="1" fill="#FFE55C"/><rect x="123" y="6" width="1" height="1" fill="#1B1206"/><rect x="124" y="6" width="1" height="1" fill="#1B1206"/><rect x="115" y="7" width="1" height="1" fill="#1B1206"/><rect x="116" y="7" width="1" height="1" fill="#1B1206"/><rect x="117" y="7" width="1" height="1" fill="#FFE55C"/><rect x="118" y="7" width="1" height="1" fill="#FFA800"/><rect x="119" y="7" width="1" height="1" fill="#FFFFFF"/><rect x="120" y="7" width="1" height="1" fill="#FFFFFF"/><rect x="121" y="7" width="1" height="1" fill="#FFFFFF"/><rect x="122" y="7" width="1" height="1" fill="#FFE55C"/><rect x="123" y="7" width="1" height="1" fill="#1B1206"/><rect x="124" y="7" width="1" height="1" fill="#1B1206"/><rect x="115" y="8" width="1" height="1" fill="#1B1206"/><rect x="116" y="8" width="1" height="1" fill="#1B1206"/><rect x="117" y="8" width="1" height="1" fill="#FFE55C"/><rect x="118" y="8" width="1" height="1" fill="#FFA800"/><rect x="119" y="8" width="1" height="1" fill="#FFA800"/><rect x="120" y="8" width="1" height="1" fill="#FFFFFF"/><rect x="121" y="8" width="1" height="1" fill="#FFFFFF"/><rect x="122" y="8" width="1" height="1" fill="#FFE55C"/><rect x="123" y="8" width="1" height="1" fill="#1B1206"/><rect x="124" y="8" width="1" height="1" fill="#1B1206"/><rect x="115" y="9" width="1" height="1" fill="#1B1206"/><rect x="116" y="9" width="1" height="1" fill="#1B1206"/><rect x="117" y="9" width="1" height="1" fill="#FFE55C"/><rect x="118" y="9" width="1" height="1" fill="#FFA800"/><rect x="119" y="9" width="1" height="1" fill="#FFA800"/><rect x="120" y="9" width="1" height="1" fill="#FFA800"/><rect x="121" y="9" width="1" height="1" fill="#FFFFFF"/><rect x="122" y="9" width="1" height="1" fill="#FFE55C"/><rect x="123" y="9" width="1" height="1" fill="#1B1206"/><rect x="124" y="9" width="1" height="1" fill="#1B1206"/><rect x="115" y="10" width="1" height="1" fill="#1B1206"/><rect x="116" y="10" width="1" height="1" fill="#1B1206"/><rect x="117" y="10" width="1" height="1" fill="#FFE55C"/><rect x="118" y="10" width="1" height="1" fill="#FFA800"/><rect x="119" y="10" width="1" height="1" fill="#FFA800"/><rect x="120" y="10" width="1" height="1" fill="#FFA800"/><rect x="121" y="10" width="1" height="1" fill="#FFA800"/><rect x="122" y="10" width="1" height="1" fill="#FFE55C"/><rect x="123" y="10" width="1" height="1" fill="#1B1206"/><rect x="124" y="10" width="1" height="1" fill="#1B1206"/><rect x="116" y="11" width="1" height="1" fill="#1B1206"/><rect x="117" y="11" width="1" height="1" fill="#1B1206"/><rect x="118" y="11" width="1" height="1" fill="#FFE55C"/><rect x="119" y="11" width="1" height="1" fill="#FFA800"/><rect x="120" y="11" width="1" height="1" fill="#FFA800"/><rect x="121" y="11" width="1" height="1" fill="#FFE55C"/><rect x="122" y="11" width="1" height="1" fill="#1B1206"/><rect x="123" y="11" width="1" height="1" fill="#1B1206"/><rect x="116" y="12" width="1" height="1" fill="#1B1206"/><rect x="117" y="12" width="1" height="1" fill="#1B1206"/><rect x="118" y="12" width="1" height="1" fill="#FFE55C"/><rect x="119" y="12" width="1" height="1" fill="#FFE55C"/><rect x="120" y="12" width="1" height="1" fill="#FFE55C"/><rect x="121" y="12" width="1" height="1" fill="#FFE55C"/><rect x="122" y="12" width="1" height="1" fill="#1B1206"/><rect x="123" y="12" width="1" height="1" fill="#1B1206"/><rect x="117" y="13" width="1" height="1" fill="#1B1206"/><rect x="118" y="13" width="1" height="1" fill="#1B1206"/><rect x="119" y="13" width="1" height="1" fill="#1B1206"/><rect x="120" y="13" width="1" height="1" fill="#1B1206"/><rect x="121" y="13" width="1" height="1" fill="#1B1206"/><rect x="122" y="13" width="1" height="1" fill="#1B1206"/><rect x="118" y="14" width="1" height="1" fill="#1B1206"/><rect x="119" y="14" width="1" height="1" fill="#1B1206"/><rect x="120" y="14" width="1" height="1" fill="#1B1206"/><rect x="121" y="14" width="1" height="1" fill="#1B1206"/></svg>